<?xml version="1.0" encoding="UTF-8" standalone="no"?>
<!DOCTYPE svg PUBLIC "-//W3C//DTD SVG 1.1//EN" "http://www.w3.org/Graphics/SVG/1.1/DTD/svg11.dtd">
<svg xmlns="http://www.w3.org/2000/svg" xmlns:xlink="http://www.w3.org/1999/xlink" version="1.1" width="175.748pt" height="175.748pt" viewBox="0 0 175.748 175.748">
<g enable-background="new">
<g id="Layer-1" data-name="Artifact">
<clipPath id="cp0">
<path transform="matrix(1,0,0,-1,0,175.748)" d="M 0 0 L 175.748 0 L 175.748 175.748 L 0 175.748 Z "/>
</clipPath>
<g clip-path="url(#cp0)">
<path transform="matrix(1,0,0,-1,88.4906,170.2252)" d="M 0 0 C 46.615 0 84.404 37.789 84.404 84.404 C 84.404 131.019 46.615 168.808 0 168.808 C -46.615 168.808 -84.404 131.019 -84.404 84.404 C -84.404 37.789 -46.615 0 0 0 " fill="#ffffff"/>
</g>
<g id="Layer-1" data-name="Artifact">
<path transform="matrix(1,0,0,-1,2.8535,88.8189)" d="M 0 0 C .402 -46.622 37.879 -85.872 84.595 -85.872 C 131.312 -85.872 169.639 -46.622 170.041 0 L 131.439 0 C 130.959 -25.148 110.437 -45.39 85.174 -45.39 C 59.911 -45.39 39.389 -25.148 38.909 0 Z " fill="#8a0c06"/>
</g>
<g id="Layer-1" data-name="Artifact">
<path transform="matrix(1,0,0,-1,87.9567,172.996)" stroke-width="3" stroke-linecap="butt" stroke-miterlimit="4" stroke-linejoin="miter" fill="none" stroke="#260703" d="M 0 0 C 46.966 0 85.039 38.073 85.039 85.039 C 85.039 132.005 46.966 170.079 0 170.079 C -46.966 170.079 -85.039 132.005 -85.039 85.039 C -85.039 38.073 -46.966 0 0 0 Z "/>
</g>
<g id="Layer-1" data-name="Artifact">
<path transform="matrix(1,0,0,-1,87.5905,137.2559)" d="M 0 0 C 26.96 0 48.815 21.855 48.815 48.815 C 48.815 75.775 26.96 97.63 0 97.63 C -26.96 97.63 -48.815 75.775 -48.815 48.815 C -48.815 21.855 -26.96 0 0 0 " fill="#260703"/>
</g>
<g id="Layer-1" data-name="Artifact">
<path transform="matrix(1,0,0,-1,88.1102,134.0905)" stroke-width="3" stroke-linecap="butt" stroke-miterlimit="4" stroke-linejoin="miter" fill="none" stroke="#231f20" d="M 0 0 C 25.564 0 46.287 20.724 46.287 46.287 C 46.287 71.851 25.564 92.575 0 92.575 C -25.564 92.575 -46.287 71.851 -46.287 46.287 C -46.287 20.724 -25.564 0 0 0 Z "/>
</g>
<g id="Layer-1" data-name="Artifact">
<path transform="matrix(1,0,0,-1,33.2115,80.370807)" d="M 0 0 L .752 2.705 C 1.726 6.211 1.377 8.742 -.296 10.299 C -1.969 11.856 -4.759 13.177 -8.665 14.263 C -12.571 15.349 -15.64 15.656 -17.873 15.185 C -20.106 14.714 -21.71 12.726 -22.685 9.22 L -23.437 6.515 C -23.601 5.923 -22.709 5.357 -20.762 4.815 L -3.19 -.069 C -1.228 -.615 -.164 -.592 0 0 M 5.988 24.949 L 2.689 18.476 L -3.968 21.882 L -.675 28.345 C -.363 28.96 -.501 29.416 -1.09 29.713 L -2.872 30.626 C -3.467 30.927 -3.921 30.77 -4.233 30.155 L -7.527 23.692 L -12.038 25.987 L -8.738 32.459 C -8.43 33.068 -8.559 33.519 -9.125 33.811 L -10.819 34.673 C -11.384 34.966 -11.824 34.804 -12.136 34.189 L -16.816 25.013 C -17.097 24.466 -16.34 23.734 -14.543 22.817 L 1.638 14.569 C 3.441 13.649 4.483 13.462 4.764 14.008 L 9.444 23.185 C 9.756 23.8 9.624 24.253 9.048 24.542 L 7.315 25.427 C 6.749 25.719 6.307 25.56 5.988 24.949 M -.212 46.138 C -.876 45.511 -1.045 44.939 -.718 44.421 L 10.188 25.708 C 10.793 25.377 11.334 25.434 11.811 25.878 L 13.474 27.437 C 13.951 27.892 14.067 28.303 13.823 28.672 L 11.67 33.019 L 13.696 34.932 L 17.898 32.504 C 18.255 32.245 18.669 32.341 19.141 32.79 L 20.796 34.341 C 21.268 34.78 21.357 35.317 21.063 35.95 L 3.06 47.963 C 2.556 48.319 1.972 48.183 1.307 47.557 Z M 23.705 36.204 L 26.16 37.567 C 29.342 39.332 30.9 41.357 30.836 43.641 C 30.771 45.926 29.756 48.841 27.789 52.386 C 25.822 55.931 23.887 58.334 21.985 59.594 C 20.082 60.855 17.54 60.602 14.358 58.837 L 11.903 57.475 C 11.366 57.177 11.588 56.144 12.569 54.377 L 21.418 38.429 C 22.406 36.648 23.168 35.907 23.705 36.204 M 38.75 57.467 C 38.646 57.755 38.565 58.045 38.506 58.34 C 38.386 58.995 38.32 59.741 38.31 60.575 C 38.299 61.41 38.491 62.406 38.886 63.562 C 39.447 65.183 40.897 66.209 43.236 66.64 C 45.575 67.072 47.293 66.632 48.39 65.319 C 49.448 64.053 50.147 62.742 50.486 61.385 C 50.592 60.924 50.321 60.633 49.673 60.514 L 47.728 60.156 C 47.094 60.039 46.729 60.132 46.63 60.436 L 45.938 61.956 C 45.45 62.898 44.764 63.286 43.88 63.12 C 42.997 62.954 42.496 62.348 42.38 61.301 C 42.292 60.622 42.345 59.911 42.539 59.167 C 42.634 58.78 42.845 58.486 43.17 58.285 L 43.27 58.3 C 43.568 58.125 43.942 58.029 44.391 58.013 C 45.725 58 46.985 57.907 48.168 57.735 C 48.403 57.687 48.633 57.638 48.86 57.589 C 50.012 57.071 50.77 56.503 51.135 55.884 C 51.5 55.264 51.743 54.627 51.863 53.971 C 51.983 53.315 52.047 52.57 52.054 51.734 C 52.061 50.899 51.867 49.907 51.47 48.758 C 50.918 47.131 49.472 46.102 47.133 45.67 C 44.794 45.238 43.079 45.683 41.989 47.004 C 40.917 48.26 40.215 49.567 39.883 50.926 C 39.77 51.386 40.037 51.675 40.685 51.795 L 42.641 52.154 C 43.282 52.272 43.648 52.179 43.739 51.875 L 44.42 50.353 C 44.916 49.412 45.604 49.025 46.484 49.19 C 47.363 49.355 47.869 49.962 48.001 51.011 C 48.074 51.688 48.021 52.399 47.842 53.145 C 47.662 53.89 47.059 54.281 46.032 54.317 C 44.77 54.356 43.55 54.462 42.374 54.635 C 42.14 54.683 41.905 54.732 41.671 54.78 C 40.226 55.133 39.233 56.025 38.694 57.459 Z M 67.034 48.642 L 59.786 49.138 L 60.308 56.598 L 67.545 56.103 C 68.233 56.057 68.599 56.363 68.641 57.022 L 68.782 59.018 C 68.825 59.684 68.503 60.04 67.815 60.086 L 60.578 60.582 L 60.92 65.631 L 68.168 65.134 C 68.849 65.089 69.213 65.384 69.26 66.02 L 69.389 67.916 C 69.436 68.551 69.115 68.892 68.427 68.938 L 58.15 69.645 C 57.537 69.689 57.161 68.705 57.022 66.693 L 55.78 48.573 C 55.64 46.554 55.877 45.522 56.49 45.478 L 66.767 44.771 C 67.455 44.725 67.819 45.024 67.86 45.668 L 67.994 47.608 C 68.041 48.244 67.721 48.588 67.034 48.642 M 83.899 45.839 C 86.181 47.755 87.763 50.197 88.644 53.165 L 88.652 53.185 C 89.444 56.174 89.704 58.413 89.433 59.904 C 89.161 61.394 88.198 62.393 86.544 62.901 L 78.962 65.207 C 78.28 65.421 77.657 64.594 77.093 62.728 L 72.103 45.883 C 71.533 44.003 71.592 42.963 72.279 42.764 L 73.821 42.287 C 74.828 41.978 75.615 42.76 76.182 44.633 L 77.195 48.032 L 79.465 47.347 L 79.531 41.034 C 79.572 40.571 79.859 40.316 80.392 40.271 L 82.348 40.083 C 82.925 40.028 83.364 40.396 83.664 41.187 Z M 100.19 50.256 L 100.777 49.86 C 100.976 49.726 101.192 49.829 101.427 50.167 L 101.599 50.444 C 101.844 50.785 101.858 51.028 101.642 51.175 L 96.855 54.445 C 96.746 54.524 96.569 54.388 96.326 54.037 L 96.151 53.776 C 95.912 53.431 95.875 53.2 96.039 53.082 L 96.671 52.653 L 86.743 38.878 L 86.128 39.293 C 86.015 39.366 85.838 39.23 85.599 38.885 L 85.418 38.615 C 85.179 38.27 85.143 38.042 85.312 37.93 L 90.162 34.614 C 90.367 34.476 90.589 34.579 90.828 34.923 L 91 35.201 C 91.245 35.541 91.256 35.787 91.033 35.938 L 90.261 36.48 Z M 108.015 31.266 C 110.701 33.964 112.345 36.358 112.947 38.449 C 113.386 39.991 112.833 41.544 111.288 43.108 C 109.744 44.673 108.206 45.234 106.674 44.793 C 104.591 44.187 102.205 42.535 99.517 39.834 C 96.829 37.134 95.184 34.744 94.582 32.663 C 94.138 31.117 94.688 29.561 96.232 27.997 C 97.777 26.432 99.32 25.87 100.862 26.311 C 102.924 26.907 105.303 28.554 107.999 31.251 Z M 123.74 26.244 L 113.052 20.045 C 111.976 19.422 110.765 18.943 109.419 18.607 C 108.424 18.363 107.806 18.451 107.565 18.869 C 107.324 19.288 107.555 19.867 108.257 20.608 C 109.223 21.615 110.244 22.429 111.32 23.052 L 122.007 29.252 C 122.403 29.48 122.445 29.859 122.134 30.388 L 120.966 32.424 C 120.658 32.964 120.306 33.12 119.911 32.892 L 111.102 27.773 C 107.701 25.801 105.416 23.878 104.246 22.004 C 103.371 20.62 103.472 18.989 104.552 17.114 C 105.631 15.238 106.99 14.335 108.629 14.406 C 110.827 14.487 113.627 15.513 117.028 17.486 L 125.837 22.604 C 126.226 22.829 126.268 23.208 125.964 23.741 L 124.796 25.777 C 124.488 26.317 124.136 26.473 123.74 26.244 M 119.929 13.337 C 120.205 13.468 120.486 13.576 120.773 13.663 C 121.414 13.846 122.15 13.982 122.98 14.073 C 123.81 14.164 124.819 14.068 126.009 13.786 C 127.675 13.383 128.835 12.038 129.489 9.751 C 130.143 7.464 129.87 5.712 128.668 4.495 C 127.51 3.319 126.272 2.498 124.953 2.031 C 124.504 1.881 124.19 2.122 124.009 2.756 L 123.466 4.658 C 123.289 5.278 123.346 5.651 123.639 5.777 L 125.086 6.612 C 125.976 7.189 126.297 7.909 126.047 8.772 C 125.797 9.636 125.146 10.076 124.093 10.091 C 123.408 10.114 122.705 9.993 121.984 9.729 C 121.608 9.596 121.335 9.359 121.166 9.016 L 121.191 8.918 C 121.045 8.604 120.985 8.223 121.012 7.774 C 121.127 6.445 121.156 5.182 121.098 3.988 C 121.072 3.75 121.046 3.516 121.019 3.285 C 120.614 2.089 120.121 1.279 119.54 .857 C 118.958 .434 118.347 .132 117.706 -.051 C 117.064 -.234 116.328 -.369 115.498 -.456 C 114.667 -.543 113.66 -.444 112.479 -.16 C 110.807 .234 109.644 1.575 108.99 3.861 C 108.335 6.148 108.614 7.898 109.824 9.109 C 110.971 10.297 112.205 11.122 113.526 11.581 C 113.973 11.739 114.287 11.501 114.467 10.867 L 115.013 8.954 C 115.192 8.327 115.135 7.954 114.84 7.835 L 113.39 7.011 C 112.502 6.427 112.182 5.705 112.431 4.845 C 112.679 3.985 113.332 3.54 114.389 3.51 C 115.07 3.502 115.773 3.623 116.498 3.873 C 117.222 4.122 117.554 4.76 117.491 5.786 C 117.409 7.047 117.397 8.271 117.457 9.458 C 117.482 9.696 117.508 9.934 117.534 10.172 C 117.746 11.644 118.54 12.717 119.915 13.391 Z " fill="#231f20"/>
</g>
<g id="Layer-1" data-name="Artifact">
<path transform="matrix(1,0,0,-1,25.5118,94.5354)" stroke-width="6" stroke-linecap="round" stroke-linejoin="round" fill="none" stroke="#ffffff" d="M 0 0 C 0 0 3.969 -52.157 56.693 -53.575 C 111.888 -55.059 123.327 -11.53 123.327 -11.53 "/>
</g>
<g id="Layer-1" data-name="Artifact">
</g>
<path transform="matrix(1,0,0,-1,50.5787,55.791505)" stroke-width="6" stroke-linecap="round" stroke-linejoin="round" fill="none" stroke="#ffffff" d="M 0 0 L 23.697 -33.093 "/>
</g>
<g id="Layer-1" data-name="Artifact">
<path transform="matrix(1,0,0,-1,101.5783,60.078104)" stroke-width="6" stroke-linecap="round" stroke-linejoin="round" fill="none" stroke="#ffffff" d="M 0 0 L 23.697 -33.093 "/>
</g>
<g id="Layer-1" data-name="Artifact">
<path transform="matrix(1,0,0,-1,51.4917,77.0063)" stroke-width="6" stroke-linecap="round" stroke-linejoin="round" fill="none" stroke="#ffffff" d="M 0 0 L 29.402 23.645 "/>
</g>
<g id="Layer-1" data-name="Artifact">
<path transform="matrix(1,0,0,-1,102.4912,81.2929)" stroke-width="6" stroke-linecap="round" stroke-linejoin="round" fill="none" stroke="#ffffff" d="M 0 0 L 29.402 23.645 "/>
</g>
</g>
</svg>
